<svg id="Layer_1" data-name="Layer 1" xmlns="http://www.w3.org/2000/svg" viewBox="0 0 50 50"><defs><style>.cls-1{fill:#323232;}.cls-2{fill:#fff;}</style></defs><title>prod-icons</title><circle class="cls-1" cx="25" cy="25" r="25"/><path class="cls-2" d="M39,20.19l-.66-1.57c2.26-5.1,2.11-5.25,1.67-5.69l-2.88-2.82-.29-.24h-.33c-.18,0-.7,0-5.09,2l-1.61-.65C27.77,6,27.55,6,26.94,6H22.88c-.61,0-.85,0-2.78,5.19l-1.61.65A26.8,26.8,0,0,0,13.32,10h-.38l-3.1,3c-.47.44-.63.6,1.75,5.62l-.66,1.56c-5.27,2-5.27,2.23-5.27,2.86v4c0,.62,0,.84,5.29,2.74l.66,1.55c-2.26,5.1-2.11,5.25-1.67,5.69l2.88,2.82.29.25h.34c.17,0,.69,0,5.08-2l1.61.65C22.22,44,22.44,44,23.05,44h4.07c.62,0,.84,0,2.78-5.19l1.61-.65A27.27,27.27,0,0,0,36.67,40h.38l3.13-3.06c.44-.45.6-.61-1.77-5.61l.65-1.56c5.28-2,5.28-2.25,5.28-2.86v-4C44.34,22.3,44.34,22.08,39,20.19ZM25,31.63A6.63,6.63,0,1,1,31.76,25,6.71,6.71,0,0,1,25,31.63Z"/></svg>