<svg id="Layer_1" data-name="Layer 1" xmlns="http://www.w3.org/2000/svg" viewBox="0 0 50 50"><defs><style>.cls-1{fill:#fff;}.cls-2{fill:#323232;}</style></defs><title>prod-icons-white</title><circle class="cls-1" cx="25" cy="25" r="25"/><g id="Plus"><polygon class="cls-2" points="27.8 15.68 22.2 15.68 22.2 22.2 15.68 22.2 15.68 27.8 22.2 27.8 22.2 34.32 27.8 34.32 27.8 27.8 34.32 27.8 34.32 22.2 27.8 22.2 27.8 15.68"/><path class="cls-2" d="M25,6.62A18.38,18.38,0,1,0,43.38,25,18.38,18.38,0,0,0,25,6.62Zm0,33.89A15.51,15.51,0,1,1,40.51,25,15.53,15.53,0,0,1,25,40.51Z"/></g></svg>