<?xml version="1.0" encoding="utf-8"?>
<!-- Generator: Adobe Illustrator 23.0.1, SVG Export Plug-In . SVG Version: 6.00 Build 0)  -->
<svg version="1.1" id="Layer_1" xmlns="http://www.w3.org/2000/svg" xmlns:xlink="http://www.w3.org/1999/xlink" x="0px" y="0px"
	 viewBox="0 0 206 276" style="enable-background:new 0 0 206 276;" xml:space="preserve">
<style type="text/css">
	.st0{fill:#323232;}
	.st1{fill:#48B782;}
	.st2{fill:#F2ECC2;}
	.st3{fill:#FFA258;}
	.st4{fill:#8559A5;}
	.st5{opacity:0.55;}
</style>
<g>
	<path class="st0" d="M0,144.63c0-0.14,0-0.28,0.01-0.42l-0.01,0V144.63z"/>
	<path class="st0" d="M206.04,146v-0.88c0-24.08,0.91-29.16-42.04-59.12l-14,3.57c31.8,23.2,41,27.77,42,42.1l-125.63-0.06
		l0.01,0.02l-48.35-0.01C21,99.42,72.44,84.78,106,60.91c22.78-16.2,22.95-22.25,22.83-32.49C128.69,16.26,121.5,0,101,0
		C82,0,75,6,71,21l8,7.66c3.9-11.71,9.47-16.76,21-17.91c8.01-0.8,17,6.18,17,16.12c0,9-4.92,14.28-21,25.08
		C50.67,82.4,0.22,106.8,0.01,144.21l69.07,0.61"/>
</g>
<g>
	<g>
		<path class="st0" d="M187,270c0,3.3-2.7,6-6,6H29c-3.3,0-6-2.7-6-6V129c0-3.3,2.7-6,6-6h152c3.3,0,6,2.7,6,6V270z"/>
	</g>
	<g>
		<rect x="23" y="209" class="st0" width="67" height="67"/>
	</g>
	<path class="st0" d="M184.74,128.04c0.45-2.3-0.53-4.78-3.48-5.45c-4.38-1-8.78-1.88-13.19-2.65c-17.85-4.45-37.01-2.17-55.3-0.83
		l-81.34,5.96c-6.38,0.47-6.43,10.47,0,10c25.79-1.89,51.58-3.78,77.38-5.67c14.19-1.04,29.71-3.25,44.46-1.96
		c0.48,0.22,1.01,0.38,1.6,0.46c3.97,0.53,7.93,1.17,11.86,1.89c3.63,1.01,7.18,2.34,10.59,4.09
		C181.69,136.13,185.67,131.61,184.74,128.04z"/>
</g>
<g>
	<path class="st1" d="M178.8,262.07c0,3.3-2.7,6-6,6H37.2c-3.3,0-6-2.7-6-6v-125.7c0-3.3,2.7-6,6-6h135.6c3.3,0,6,2.7,6,6V262.07z"
		/>
</g>
<g>
	<rect x="31.2" y="207.77" class="st1" width="60.3" height="60.3"/>
</g>
<path class="st1" d="M176.77,134.91c0.4-2.07-0.48-4.3-3.13-4.9c-3.94-0.9-7.9-1.69-11.87-2.39c-16.06-4-33.31-1.96-49.77-0.75
	l-73.21,5.36c-5.74,0.42-5.79,9.42,0,9c23.21-1.7,46.43-3.4,69.64-5.1c12.78-0.94,26.74-2.92,40.02-1.76
	c0.43,0.2,0.91,0.34,1.44,0.42c3.57,0.48,7.13,1.05,10.68,1.7c3.27,0.91,6.46,2.11,9.53,3.68
	C174.02,142.18,177.6,138.11,176.77,134.91z"/>
<g class="st5">
	<path class="st2" d="M176.77,247.43c0.4-2.88-0.48-5.98-3.13-6.82c-3.94-1.25-7.9-2.35-11.87-3.32
		c-13.76-2.28-29.97-2.74-49.77-1.05l-73.21,7.46c-5.74,0.58-5.79,13.11,0,12.52c23.21-2.36,46.43-4.73,69.64-7.09
		c12.78-1.3,27.74-2.07,41.02-0.46c0.43,0.28,0.91,0.48,1.44,0.58c3.57,0.67,7.13,1.46,10.68,2.37c3.27,1.26,5.46,0.93,8.53,3.13
		C174.02,257.55,177.6,251.89,176.77,247.43z"/>
</g>
<path class="st0" d="M101.16,232.97l-1.02-0.03c-0.24-1.68-0.45-3.4-0.64-5.14c-0.19-1.75-0.35-3.48-0.48-5.21
	c-0.14-1.72-0.24-3.42-0.31-5.07c-0.07-1.66-0.1-3.24-0.1-4.74c0-1.11,0.02-2.17,0.05-3.17c0.03-1,0.1-1.93,0.2-2.79
	c0.03-0.23,0.31-0.43,0.82-0.59c0.51-0.16,1.16-0.3,1.94-0.41c0.78-0.11,1.66-0.19,2.63-0.24c0.97-0.05,1.95-0.08,2.94-0.08
	c1.19,0,2.47,0.04,3.83,0.12c1.36,0.08,2.69,0.19,3.98,0.34c-0.99,2.21-1.94,4.41-2.86,6.59c-0.92,2.19-1.79,4.39-2.6,6.61
	c-0.82,2.22-1.58,4.46-2.27,6.74c-0.7,2.27-1.34,4.59-1.91,6.96L101.16,232.97z"/>
<g>
	<path class="st0" d="M126.83,154.42c4.15,1.82,7.7,4.5,10.64,8.03c2.95,3.53,4.42,7.03,4.42,10.51c0,3.73-0.86,6.66-2.57,8.77
		c-1.71,2.11-4.16,3.17-7.35,3.17c-2.03,0-3.79-0.69-5.29-2.08c-1.49-1.39-2.24-3.01-2.24-4.86c0-0.9,0.14-1.77,0.41-2.63
		s0.75-1.61,1.42-2.28c0.7-0.72,1.61-1.29,2.75-1.69c1.13-0.41,2.6-0.61,4.4-0.61h2.44c-0.29-3.01-1.37-5.57-3.23-7.68
		c-1.86-2.11-4.43-3.97-7.71-5.56L126.83,154.42z"/>
</g>
<g>
	<path class="st0" d="M76.83,154.42c4.15,1.82,7.7,4.5,10.64,8.03c2.95,3.53,4.42,7.03,4.42,10.51c0,3.73-0.86,6.66-2.57,8.77
		c-1.71,2.11-4.16,3.17-7.35,3.17c-2.03,0-3.79-0.69-5.29-2.08c-1.49-1.39-2.24-3.01-2.24-4.86c0-0.9,0.14-1.77,0.41-2.63
		s0.75-1.61,1.42-2.28c0.7-0.72,1.61-1.29,2.75-1.69c1.13-0.41,2.6-0.61,4.4-0.61h2.44c-0.29-3.01-1.37-5.57-3.23-7.68
		c-1.86-2.11-4.43-3.97-7.71-5.56L76.83,154.42z"/>
</g>
<path class="st0" d="M104.48,257.91c-1.04,0-1.99-0.22-2.85-0.64c-0.86-0.43-1.59-0.99-2.18-1.67c-0.59-0.68-1.05-1.47-1.38-2.36
	c-0.33-0.89-0.49-1.81-0.49-2.76c0-1.33,0.22-2.51,0.67-3.52c0.44-1.01,1.02-1.86,1.71-2.56c0.7-0.7,1.48-1.22,2.36-1.56
	s1.74-0.51,2.6-0.51c1.01,0,1.94,0.19,2.8,0.56c0.86,0.37,1.59,0.88,2.2,1.51c0.61,0.64,1.08,1.38,1.42,2.22
	c0.34,0.85,0.51,1.74,0.51,2.69c0,1.04-0.17,2.07-0.51,3.09c-0.34,1.02-0.83,1.94-1.47,2.76c-0.64,0.82-1.42,1.48-2.34,1.98
	C106.63,257.66,105.61,257.91,104.48,257.91z"/>
</svg>
